<svg width="137" height="33" viewBox="0 0 137 33" fill="none" xmlns="http://www.w3.org/2000/svg">
<path fill-rule="evenodd" clip-rule="evenodd" d="M1.82145 27.7432L1.96744 27.7823C1.91806 27.7726 1.86931 27.7595 1.82145 27.7432ZM22.6239 12.8737C23.1713 13.1998 23.5119 13.6302 23.6214 14.0737L23.6457 14.2433C23.5971 14.7389 23.2443 15.2346 22.6117 15.6128L3.39076 27.3128C3.00147 27.5606 2.62435 27.665 2.29589 27.665C1.95527 27.665 1.66331 27.5476 1.42 27.3258L1.34701 27.2476C1.02816 26.8352 0.867278 26.3084 0.896903 25.7737V2.7129C0.896903 2.00855 1.09155 1.47377 1.42 1.14769C1.66331 0.92595 1.95527 0.808558 2.29589 0.808558C2.62435 0.808558 3.00147 0.92595 3.39076 1.16073L22.6117 12.8737H22.6239ZM2.28373 0.652038H2.45404H2.28373ZM113.96 27.2084H116.222V10.9042H113.96V27.2084ZM134.397 16.7737L131.794 23.8432H131.721L129.02 16.7737H126.575L130.626 26.6606L128.315 32.1519H130.687L136.928 16.7737H134.397ZM121.526 25.3563C120.784 25.3563 119.75 24.965 119.75 23.9737C119.75 22.7085 121.04 22.2259 122.147 22.2259C123.157 22.2259 123.619 22.4606 124.227 22.7737C124.145 23.4817 123.826 24.1336 123.329 24.6085C122.832 25.0835 122.192 25.3491 121.526 25.3563ZM121.806 16.4215C120.152 16.4215 118.461 17.2041 117.755 18.9128L119.763 19.8259C120.2 18.9128 121.003 18.6259 121.831 18.6259C123.011 18.6259 124.203 19.3693 124.227 20.7128V20.8824C123.496 20.4676 122.682 20.2525 121.855 20.2563C119.69 20.2563 117.475 21.5346 117.475 23.9215C117.475 26.1128 119.264 27.5215 121.247 27.5215C122.779 27.5215 123.619 26.778 124.154 25.9171H124.227V27.1824H126.417V20.9215C126.417 18.0389 124.397 16.4215 121.794 16.4215H121.806ZM107.768 18.7693H104.544V13.1607H107.768C109.471 13.1607 110.444 14.6737 110.444 15.965C110.444 17.2302 109.471 18.7563 107.768 18.7563V18.7693ZM107.719 10.9042H102.269V27.2084H104.544V21.0259H107.707C110.225 21.0259 112.695 19.0693 112.695 15.965C112.695 12.8607 110.225 10.9042 107.707 10.9042H107.719ZM78.0482 25.3563C76.4911 25.3563 75.1773 23.9476 75.1773 22.0172C75.1773 20.0606 76.4911 18.6259 78.0482 18.6259C79.6054 18.6259 80.8219 20.0606 80.8219 22.0172C80.8219 23.9476 79.6054 25.3563 78.0482 25.3563ZM80.6638 17.6867H80.5786C80.2327 17.2843 79.8107 16.9656 79.3408 16.7519C78.8709 16.5382 78.3639 16.4345 77.8536 16.4476C76.5144 16.5019 75.2478 17.1142 74.3231 18.1543C73.3985 19.1945 72.8888 20.5803 72.9024 22.0172C72.8921 23.4492 73.4041 24.8289 74.329 25.862C75.2539 26.8951 76.5187 27.5 77.8536 27.5476C78.3663 27.5617 78.8757 27.4559 79.3463 27.2373C79.8169 27.0188 80.2375 26.6929 80.5786 26.2824H80.6638V27.078C80.6638 29.2041 79.6054 30.3389 77.9023 30.3389C77.3329 30.3272 76.7798 30.1335 76.3138 29.7826C75.8478 29.4317 75.4902 28.9396 75.2868 28.3693L73.316 29.2432C73.6874 30.2192 74.3226 31.0537 75.1399 31.6394C75.9572 32.2252 76.9192 32.5354 77.9023 32.5302C80.5664 32.5302 82.817 30.8345 82.817 26.7519V16.7867H80.6638V17.6998V17.6867ZM84.3863 27.2084H86.6612V10.9042H84.3863V27.2084ZM90.0066 21.8215C89.9819 21.4181 90.0326 21.0134 90.1556 20.6312C90.2787 20.249 90.4716 19.897 90.7231 19.5958C90.9746 19.2945 91.2796 19.0501 91.6203 18.8769C91.961 18.7036 92.3306 18.605 92.7073 18.5867C93.6196 18.5867 94.386 19.0693 94.6293 19.7606L90.0066 21.8345V21.8215ZM97.0624 19.9824C96.6366 18.7433 95.3228 16.4607 92.6343 16.4607C89.9701 16.4607 87.756 18.6911 87.756 21.9911C87.756 25.1084 89.9458 27.5476 92.8897 27.5476C95.2619 27.5476 96.6366 25.9824 97.2084 25.0824L95.4444 23.8302C95.1786 24.3003 94.8033 24.6881 94.3554 24.9557C93.9075 25.2232 93.4024 25.3613 92.8897 25.3563C91.734 25.3563 90.9068 24.7954 90.3837 23.6737L97.3057 20.6085L97.0624 19.9824ZM41.9543 18.1563V20.5041H47.1974C47.1218 21.6067 46.7018 22.6498 46.0053 23.465C45.4781 24.0409 44.844 24.4917 44.1441 24.7883C43.4442 25.0848 42.694 25.2206 41.9421 25.1867C41.1797 25.1851 40.4252 25.0213 39.7222 24.7049C39.0192 24.3886 38.3817 23.9259 37.8466 23.3437C37.3115 22.7614 36.8893 22.0712 36.6046 21.3129C36.32 20.5546 36.1783 19.7432 36.188 18.9259C36.1737 17.7122 36.4929 16.5208 37.1058 15.5003C37.7187 14.4798 38.5982 13.6753 39.6346 13.1872C40.6711 12.699 41.8186 12.5487 42.9342 12.7551C44.0497 12.9614 45.084 13.5153 45.9079 14.3476L47.4529 12.6911C46.7279 11.9222 45.867 11.3162 44.9207 10.9086C43.9744 10.5009 42.9618 10.2999 41.9421 10.3172C39.8013 10.317 37.7464 11.2198 36.2213 12.8305C34.6962 14.4413 33.8234 16.6308 33.7915 18.9259C33.8234 21.2209 34.6962 23.4104 36.2213 25.0212C37.7464 26.632 39.8013 27.5348 41.9421 27.5345C44.3386 27.5345 46.1391 26.6997 47.5502 25.1215C48.8292 23.623 49.5104 21.6473 49.448 19.6172C49.448 19.0693 49.4115 18.5737 49.3263 18.1563H41.9421H41.9543ZM55.4211 25.3563C53.8518 25.3563 52.5014 23.9737 52.5014 21.9911C52.5014 19.9954 53.8518 18.6389 55.4211 18.6389C57.0026 18.6389 58.3407 19.9954 58.3407 21.9911C58.3407 23.9737 57.0026 25.3563 55.4211 25.3563ZM55.4211 16.4476C54.7378 16.4354 54.0592 16.5702 53.4254 16.8441C52.7916 17.118 52.2155 17.5254 51.7312 18.0423C51.2468 18.5592 50.8641 19.175 50.6057 19.8532C50.3473 20.5315 50.2183 21.2584 50.2266 21.9911C50.2167 22.7248 50.3444 23.4532 50.6021 24.1329C50.8598 24.8127 51.2423 25.4301 51.7268 25.9483C52.2113 26.4666 52.7879 26.8752 53.4226 27.1499C54.0572 27.4247 54.7368 27.5599 55.4211 27.5476C56.1054 27.5599 56.785 27.4247 57.4196 27.1499C58.0542 26.8752 58.6309 26.4666 59.1154 25.9483C59.5999 25.4301 59.9823 24.8127 60.2401 24.1329C60.4978 23.4532 60.6255 22.7248 60.6156 21.9911C60.6238 21.2584 60.4949 20.5315 60.2365 19.8532C59.978 19.175 59.5953 18.5592 59.111 18.0423C58.6266 17.5254 58.0505 17.118 57.4167 16.8441C56.7829 16.5702 56.1043 16.4354 55.4211 16.4476ZM66.759 25.3563C65.1775 25.3563 63.8394 23.9737 63.8394 21.9911C63.8394 19.9954 65.1775 18.6389 66.759 18.6389C68.3161 18.6389 69.6786 19.9954 69.6786 21.9911C69.6786 23.9737 68.3161 25.3563 66.759 25.3563ZM66.759 16.4476C66.0757 16.4354 65.3971 16.5702 64.7633 16.8441C64.1295 17.118 63.5534 17.5254 63.0691 18.0423C62.5848 18.5592 62.2021 19.175 61.9436 19.8532C61.6852 20.5315 61.5563 21.2584 61.5645 21.9911C61.5546 22.7248 61.6823 23.4532 61.94 24.1329C62.1977 24.8127 62.5802 25.4301 63.0647 25.9483C63.5492 26.4666 64.1259 26.8752 64.7605 27.1499C65.3951 27.4247 66.0747 27.5599 66.759 27.5476C67.4433 27.5599 68.1229 27.4247 68.7575 27.1499C69.3921 26.8752 69.9688 26.4666 70.4533 25.9483C70.9378 25.4301 71.3203 24.8127 71.578 24.1329C71.8357 23.4532 71.9634 22.7248 71.9535 21.9911C71.9617 21.2584 71.8328 20.5315 71.5744 19.8532C71.3159 19.175 70.9332 18.5592 70.4489 18.0423C69.9646 17.5254 69.3885 17.118 68.7547 16.8441C68.1209 16.5702 67.4422 16.4354 66.759 16.4476Z" fill="white"/>
</svg>
